mtllib Dubai Chocolate.mtl
# Vertex Positions: 
g groupNumber_0
v 6.57653 -3.36357 -0.8825
v 6.57653 3.36357 -0.8825
v -6.57653 3.36357 -0.8825
v -6.57653 -3.36357 -0.8825
v 6.57653 -3.36357 0.8825
v 6.57653 3.36357 0.8825
v -6.57653 3.36357 0.8825
v -6.57653 -3.36357 0.8825
v 6.57653 1.29063e-06 0
v -6.60096e-07 3.36357 0
v -6.57653 -1.29063e-06 0
v 6.60096e-07 -3.36357 0


# Vertex Texture Coordinates :
vt 0.678171 0
vt 0.678171 0.346851
vt 0 0.346851
vt 0 0
vt 0 0.355146
vt 0 0.701997
vt 0.678171 0.701997
vt 0.678171 0.355146
vt 8.20815e-06 0.710314
vt 0.346859 0.710314
vt 9.10735e-17 0.809655
vt 0.678171 0.809655
vt 0.355154 0.710314
vt 0.702005 0.710314
vt 0 0.908997
vt 0.678171 0.908997
vt 8.20815e-06 0.801317
vt 0.346859 0.801317
vt 9.10735e-17 0.900658
vt 0.678171 0.900658
vt 0.355154 0.801317
vt 0.702005 0.801317
vt 0 1
vt 0.678171 1
vt 0.173434 0.755815
vt 0.339086 0.855157
vt 0.52858 0.755815
vt 0.339086 0.954498


# Vertex Surface Normals: 
vn 0 0 1
vn 0 0 -1
vn 1 1.96249e-07 0
vn 1 1.96249e-07 0
vn -1.96249e-07 1 0
vn -1.96249e-07 1 0
vn -1 -1.96249e-07 0
vn -1 -1.96249e-07 0
vn 1.96249e-07 -1 0
vn 1.96249e-07 -1 0
vn 1 1.96249e-07 0
vn 1 1.96249e-07 0
vn -1.96249e-07 1 0
vn -1.96249e-07 1 0
vn -1 -1.96249e-07 0
vn -1 -1.96249e-07 0
vn 1.96249e-07 -1 0
vn 1.96249e-07 -1 0
vn 1 1.96249e-07 0
vn -1.96249e-07 1 0
vn -1 -1.96249e-07 0
vn 1.96249e-07 -1 0


# Faces: 
usemtl material0
f 7/3/1 8/4/1 5/1/1
f 5/1/1 6/2/1 7/3/1
f 4/8/2 3/7/2 1/5/2
f 2/6/2 1/5/2 3/7/2
f 9/25/19 1/9/3 2/10/4
f 9/25/19 2/10/4 6/18/12
f 9/25/19 6/18/12 5/17/11
f 9/25/19 5/17/11 1/9/3
f 10/26/20 2/11/5 3/12/6
f 10/26/20 3/12/6 7/20/14
f 10/26/20 7/20/14 6/19/13
f 10/26/20 6/19/13 2/11/5
f 11/27/21 3/13/7 4/14/8
f 11/27/21 4/14/8 8/22/16
f 11/27/21 8/22/16 7/21/15
f 11/27/21 7/21/15 3/13/7
f 12/28/22 4/15/9 1/16/10
f 12/28/22 1/16/10 5/24/18
f 12/28/22 5/24/18 8/23/17
f 12/28/22 8/23/17 4/15/9
